<?xml version="1.0" encoding="utf-8"?>
<!-- Generator: Adobe Illustrator 26.0.0, SVG Export Plug-In . SVG Version: 6.00 Build 0)  -->
<svg version="1.1" id="Слой_1" xmlns="http://www.w3.org/2000/svg" xmlns:xlink="http://www.w3.org/1999/xlink" x="0px" y="0px"
	 viewBox="0 0 29.6 28.8" style="enable-background:new 0 0 29.6 28.8;" xml:space="preserve">
<g>
	<path d="M10.6,18.5c-0.1,0-0.2,0-0.3,0c-0.3,0-0.5-0.2-0.7-0.4c-0.2-0.3-0.4-0.4-0.7-0.3C8.2,18,7.6,18.1,7,18.3
		c-0.6,0.2-1.2,0.4-1.8,0.6c-0.3,0.1-0.7,0.2-1,0.3c-0.3,0.1-0.7,0.2-1,0.3c-0.4,0.1-0.8,0.2-1.2,0.3c-0.3,0-0.3-0.1-0.4-0.3
		c-0.1-0.4,0.1-0.7,0.3-0.9c0.3-0.6,0.7-1.1,1.1-1.7c0.3-0.5,0.7-1.1,1-1.6c0.3-0.4,0.5-0.9,0.8-1.3c0.2-0.4,0.5-0.8,0.8-1.2
		C5.7,12.4,6,12,6.2,11.5c0.1-0.2,0.2-0.3,0.3-0.5C6.6,11,6.7,11,6.8,11C6.9,10.9,7,11,7,11c0,0,0,0.1,0,0.2c-0.3,0.5-0.5,1-0.8,1.5
		c-0.3,0.5-0.5,1-0.8,1.5c-0.2,0.4-0.4,0.7-0.5,1.1c-0.2,0.3-0.4,0.7-0.5,1c-0.2,0.5-0.5,0.9-0.7,1.4c-0.1,0.1,0,0.3,0.1,0.4
		c0.1,0.1,0.2,0.2,0.4,0.1c0.5-0.2,1-0.4,1.5-0.6C6.1,17.4,6.6,17.2,7,17c0.5-0.2,0.9-0.3,1.4-0.5c0.3-0.1,0.5-0.2,0.8-0.3
		c0.3-0.1,0.5-0.2,0.8-0.3c0.2-0.1,0.3,0,0.4,0.2c0.2,0.4,0.5,0.8,0.8,1.2c0.1,0.2,0.2,0.3,0.3,0.5c0.2,0.4,0,0.8-0.5,0.8
		C10.9,18.5,10.7,18.5,10.6,18.5C10.6,18.5,10.6,18.5,10.6,18.5z"/>
	<path d="M8.5,13c-0.2-0.4-0.5-0.7-0.7-1.1c-0.1-0.1-0.2-0.2-0.3-0.2c-0.1,0-0.2,0.1-0.3,0.3c-0.2,0.4-0.5,0.9-0.7,1.3
		c-0.3,0.6-0.6,1.3-1,1.9c-0.3,0.6-0.6,1.2-1,1.8c-0.1,0.2,0.1,0.4,0.3,0.4c0,0,0.1,0,0.1,0c0.4-0.2,0.9-0.4,1.3-0.6
		c0.5-0.2,1.1-0.4,1.6-0.7c0.2-0.1,0.4-0.2,0.7-0.3c0.5-0.2,0.9-0.4,1.4-0.6c0,0,0,0,0,0L8.5,13z M7.8,14.8l-0.4,0.1
		C7.3,15,7.2,15,7.1,15c0,0-0.1,0-0.1,0c-0.1,0-0.2-0.1-0.1-0.2L7.3,14c0.1-0.1,0.2-0.1,0.3,0l0.3,0.7C8,14.7,7.9,14.8,7.8,14.8z"/>
	<path d="M10.4,15.1l-0.7,0.3c0,0-0.1,0-0.1,0l0-0.1c0,0,0-0.1,0-0.1l0.7-0.3c0,0,0.1,0,0.1,0L10.4,15.1
		C10.5,15,10.5,15.1,10.4,15.1z"/>
</g>
</svg>
